<svg xmlns="http://www.w3.org/2000/svg" width="2200" height="1200" viewBox="0 0 2200 1200">
  <defs>
    <marker id="arrow" markerWidth="12" markerHeight="8" refX="10" refY="4" orient="auto">
      <polygon points="0,0 12,4 0,8" fill="#374151"/>
    </marker>
    <style>
      .lane { fill: #ffffff; stroke: #94a3b8; stroke-width: 2; }
      .pool-title { font: 700 24px Arial, sans-serif; fill: #111827; }
      .lane-title { font: 700 18px Arial, sans-serif; fill: #111827; }
      .task { fill: #eef2ff; stroke: #4f46e5; stroke-width: 2; rx: 16; ry: 16; }
      .gateway { fill: #fef3c7; stroke: #d97706; stroke-width: 2; }
      .event-start { fill: #dcfce7; stroke: #16a34a; stroke-width: 3; }
      .event-end { fill: #fee2e2; stroke: #dc2626; stroke-width: 4; }
      .flow { stroke: #374151; stroke-width: 3; fill: none; marker-end: url(#arrow); }
      .data { fill: #f8fafc; stroke: #475569; stroke-width: 2; }
      .label { font: 14px Arial, sans-serif; fill: #0f172a; text-anchor: middle; dominant-baseline: middle; }
      .small { font: 13px Arial, sans-serif; fill: #0f172a; text-anchor: middle; }
      .note { font: 13px Arial, sans-serif; fill: #334155; text-anchor: middle; }
    </style>
  </defs>

  <rect x="20" y="20" width="2160" height="1160" class="lane"/>
  <text x="40" y="55" class="pool-title">Processo de Negócio (BPMN 2.0): Execução de Missão do MicroMouse</text>

  <rect x="20" y="90" width="2160" height="260" class="lane"/>
  <rect x="20" y="350" width="2160" height="260" class="lane"/>
  <rect x="20" y="610" width="2160" height="260" class="lane"/>
  <rect x="20" y="870" width="2160" height="310" class="lane"/>

  <text x="55" y="220" class="lane-title" transform="rotate(-90 55,220)">Operador</text>
  <text x="55" y="480" class="lane-title" transform="rotate(-90 55,480)">Frontend</text>
  <text x="55" y="740" class="lane-title" transform="rotate(-90 55,740)">Backend</text>
  <text x="55" y="1025" class="lane-title" transform="rotate(-90 55,1025)">Robô Micromouse</text>

  <circle cx="180" cy="220" r="30" class="event-start"/>
  <text x="180" y="220" class="small">Início</text>

  <rect x="250" y="180" width="210" height="80" class="task"/>
  <text x="355" y="220" class="label">Selecionar missão</text>
  <text x="355" y="242" class="label">e iniciar execução</text>

  <rect x="540" y="440" width="220" height="90" class="task"/>
  <text x="650" y="475" class="label">Validar parâmetros</text>
  <text x="650" y="498" class="label">da missão</text>

  <rect x="860" y="700" width="260" height="90" class="task"/>
  <text x="990" y="735" class="label">Carregar estratégia</text>
  <text x="990" y="758" class="label">e dados de navegação</text>

  <rect x="1210" y="700" width="220" height="90" class="task"/>
  <text x="1320" y="735" class="label">Enviar comando</text>
  <text x="1320" y="758" class="label">de partida</text>

  <rect x="1510" y="960" width="220" height="90" class="task"/>
  <text x="1620" y="995" class="label">Explorar labirinto</text>
  <text x="1620" y="1018" class="label">e coletar sensores</text>

  <rect x="1510" y="700" width="230" height="90" class="task"/>
  <text x="1625" y="735" class="label">Processar telemetria</text>
  <text x="1625" y="758" class="label">recebida</text>

  <polygon points="1860,745 1910,695 1960,745 1910,795" class="gateway"/>
  <text x="1910" y="740" class="small">Objetivo</text>
  <text x="1910" y="758" class="small">encontrado?</text>

  <rect x="1820" y="610" width="260" height="90" class="task"/>
  <text x="1950" y="645" class="label">Calcular rota ótima</text>
  <text x="1950" y="668" class="label">de retorno</text>

  <rect x="1820" y="440" width="260" height="90" class="task"/>
  <text x="1950" y="475" class="label">Persistir resultados</text>
  <text x="1950" y="498" class="label">da missão</text>

  <rect x="1510" y="440" width="230" height="90" class="task"/>
  <text x="1625" y="475" class="label">Exibir relatório</text>
  <text x="1625" y="498" class="label">de execução</text>

  <rect x="1210" y="180" width="220" height="80" class="task"/>
  <text x="1320" y="220" class="label">Encerrar missão</text>

  <circle cx="1510" cy="220" r="34" class="event-end"/>
  <text x="1510" y="220" class="small">Fim</text>

  <path d="M210 220 L250 220" class="flow"/>
  <path d="M460 220 L650 220 L650 440" class="flow"/>
  <path d="M760 485 L990 485 L990 700" class="flow"/>
  <path d="M1120 745 L1210 745" class="flow"/>
  <path d="M1430 745 L1620 745 L1620 960" class="flow"/>
  <path d="M1620 960 L1620 790" class="flow"/>
  <path d="M1740 745 L1860 745" class="flow"/>
  <path d="M1960 745 L1960 700" class="flow"/>
  <path d="M1950 610 L1950 530" class="flow"/>
  <path d="M1820 485 L1740 485" class="flow"/>
  <path d="M1510 485 L1430 485 L1320 485 L1320 260" class="flow"/>
  <path d="M1430 220 L1476 220" class="flow"/>

  <text x="1780" y="725" class="note">Não</text>
  <text x="1978" y="725" class="note">Sim</text>

  <path d="M320 95 L320 145 L420 145 L420 95 Z" class="data"/>
  <text x="370" y="130" class="small">Configuração da missão</text>

  <path d="M530 95 L530 145 L640 145 L640 95 Z" class="data"/>
  <text x="585" y="130" class="small">Mapa inicial (opcional)</text>

  <path d="M1700 610 L1700 660 L1820 660 L1820 610 Z" class="data"/>
  <text x="1760" y="645" class="small">Telemetria consolidada</text>

  <path d="M2060 610 L2060 660 L2140 660 L2140 610 Z" class="data"/>
  <text x="2100" y="645" class="small">Rota ótima</text>

  <path d="M1660 350 L1660 400 L1780 400 L1780 350 Z" class="data"/>
  <text x="1720" y="385" class="small">Relatório de execução</text>
</svg>
